# xmcd
#
# Track frame offsets:
#	150
#	16814
#	29502
#	46594
#	61464
#	77068
#	89307
#	105970
#	118660
#	135754
#	150707
#	166313
#
# Disc length: 2380 seconds
#
# Revision: 1
# Processed by: cddbd v1.5.2PL0 Copyright (c) Steve Scherf et al.
# Submitted via: audiograbber 1.83.01
#
DISCID=82094a0c
DTITLE=Hayes, Wade - CB20258
DYEAR=1900
DGENRE=Karaoke
TTITLE0=Old Enough To Know Better w/vocal
TTITLE1=Don't Stop w/vocal
TTITLE2=Day That She Left Tulsa (In A Chevy), The w/vocal
TTITLE3=On A Good Night w/vocal
TTITLE4=When The Wrong One Loves You Right w/vocal
TTITLE5=What I Meant To Say w/vocal
TTITLE6=Old Enough To Know Better
TTITLE7=Don't Stop
TTITLE8=Day That She Left Tulsa (In A Chevy), The
TTITLE9=On A Good Night
TTITLE10=When The Wrong One Loves You Right
TTITLE11=What I Meant To Say
EXTD=
EXTT0=
EXTT1=
EXTT2=
EXTT3=
EXTT4=
EXTT5=
EXTT6=
EXTT7=
EXTT8=
EXTT9=
EXTT10=
EXTT11=
PLAYORDER=
